<svg width="90" height="90" viewBox="0 0 90 90" fill="none" xmlns="http://www.w3.org/2000/svg">
<path d="M0 11C0 8.23858 2.23858 6 5 6H75C77.7614 6 80 8.23858 80 11V28H0V11Z" fill="#214A27"/>
<circle cx="21" cy="15" r="6" fill="#D9D9D9"/>
<circle cx="59" cy="15" r="6" fill="#D9D9D9"/>
<path d="M16 5C16 2.23858 18.2386 0 21 0V0C23.7614 0 26 2.23858 26 5V15C26 17.7614 23.7614 20 21 20V20C18.2386 20 16 17.7614 16 15V5Z" fill="#575757"/>
<path d="M54 5C54 2.23858 56.2386 0 59 0V0C61.7614 0 64 2.23858 64 5V15C64 17.7614 61.7614 20 59 20V20C56.2386 20 54 17.7614 54 15V5Z" fill="#575757"/>
<path d="M0 28H80V78C80 80.7614 77.7614 83 75 83H5C2.23858 83 0 80.7614 0 78V28Z" fill="white"/>
<rect x="16" y="36" width="9" height="9" fill="#D9D9D9"/>
<rect x="55" y="36" width="9" height="9" fill="#D9D9D9"/>
<rect x="29" y="36" width="9" height="9" fill="#D9D9D9"/>
<rect x="42" y="36" width="9" height="9" fill="#D9D9D9"/>
<rect x="16" y="49" width="9" height="9" fill="#D9D9D9"/>
<rect x="55" y="49" width="9" height="9" fill="#D9D9D9"/>
<rect x="29" y="49" width="9" height="9" fill="#D9D9D9"/>
<rect x="42" y="49" width="9" height="9" fill="#D9D9D9"/>
<rect x="16" y="62" width="9" height="9" fill="#D9D9D9"/>
<rect x="55" y="62" width="9" height="9" fill="#D9D9D9"/>
<rect x="29" y="62" width="9" height="9" fill="#D9D9D9"/>
<rect x="42" y="62" width="9" height="9" fill="#D9D9D9"/>
<circle cx="69" cy="69" r="21" fill="#214A27"/>
<rect x="65" y="56" width="9" height="26" fill="white"/>
<rect x="56" y="73" width="9" height="26" transform="rotate(-90 56 73)" fill="white"/>
</svg>
